/* XPM */
static char *result[] = {
/* columns rows colors chars-per-pixel */
"32 32 209 2 ",
"   c #150000",
".  c #00001A",
"X  c #00003A",
"o  c #610000",
"O  c #75473F",
"+  c #000359",
"@  c #05185F",
"#  c #262E54",
"$  c #000061",
"%  c #00007D",
"&  c #00157F",
"*  c #0D296A",
"=  c #002777",
"-  c #0D337E",
";  c #153270",
":  c #36386F",
">  c #3D7454",
",  c #23467E",
"<  c #274469",
"1  c #61504F",
"2  c #6F5453",
"3  c #4F4F62",
"4  c #505973",
"5  c #72727A",
"6  c #6F6A6E",
"7  c #990000",
"8  c #AD0000",
"9  c #B10000",
"0  c #C60000",
"q  c #CF0201",
"w  c #D40000",
"e  c #DD0000",
"r  c #C81100",
"t  c #E30002",
"y  c #EB0000",
"u  c #E5000E",
"i  c #E81814",
"p  c #C12300",
"a  c #D02E0F",
"s  c #D13714",
"d  c #E73C3B",
"f  c #895E00",
"g  c #844729",
"h  c #C74F1D",
"j  c #D15335",
"k  c #B15753",
"l  c #91734E",
"z  c #827672",
"x  c #856B6B",
"c  c #BB7878",
"v  c #C96C55",
"b  c #C56B53",
"n  c #DD6D68",
"m  c #F37070",
"M  c #738866",
"N  c #E7AA2E",
"B  c #A58154",
"V  c #928575",
"C  c #A88A66",
"Z  c #AD8F76",
"A  c #E0B14F",
"S  c #E5AF47",
"D  c #D48874",
"F  c #CC8370",
"G  c #D9B479",
"H  c #D3AB6A",
"J  c #EEBC67",
"K  c #E5B778",
"L  c #FCC766",
"P  c #FDCA7A",
"I  c #FFD46D",
"U  c #000686",
"Y  c #001B87",
"T  c #000094",
"R  c #00009D",
"E  c #001A96",
"W  c #00268D",
"Q  c #002A87",
"!  c #002C9B",
"~  c #002794",
"^  c #01339C",
"/  c #0B3B99",
"(  c #123394",
")  c #0007AC",
"_  c #0014AD",
"`  c #0026A9",
"'  c #002FAA",
"]  c #002BA6",
"[  c #0036A4",
"{  c #0B3CA3",
"}  c #0034AD",
"|  c #013AAD",
" . c #0C3CAC",
".. c #0538A5",
"X. c #1339A9",
"o. c #013BB3",
"O. c #003DB8",
"+. c #063AB2",
"@. c #113BB0",
"#. c #213CA1",
"$. c #1C439A",
"%. c #164C9B",
"&. c #015B9E",
"*. c #214583",
"=. c #254989",
"-. c #354482",
";. c #284B99",
":. c #29559A",
">. c #355998",
",. c #354F8A",
"<. c #3C6299",
"1. c #004AAA",
"2. c #1643A8",
"3. c #0746B6",
"4. c #1E45B5",
"5. c #1642B7",
"6. c #1858B3",
"7. c #2245AD",
"8. c #2952A7",
"9. c #2857A5",
"0. c #355CA9",
"q. c #2749B8",
"w. c #345CB4",
"e. c #2E58B2",
"r. c #3B62AC",
"t. c #3961A4",
"y. c #3965B5",
"u. c #43588C",
"i. c #43689A",
"p. c #51679A",
"a. c #647196",
"s. c #456CAC",
"d. c #4466A6",
"f. c #566CA8",
"g. c #4B74AE",
"h. c #4F74A0",
"j. c #5878AA",
"k. c #4C74B4",
"l. c #4873BD",
"z. c #547BB3",
"x. c #537CBA",
"c. c #0140C0",
"v. c #235AC4",
"b. c #4774C3",
"n. c #537FC1",
"m. c #947B98",
"M. c #6F80AD",
"N. c #6E8EB9",
"B. c #5984C9",
"V. c #6490CF",
"C. c #618FD5",
"Z. c #878383",
"A. c #908080",
"S. c #999897",
"D. c #909394",
"F. c #A88B84",
"G. c #B1998F",
"H. c #B7B295",
"J. c #8F95B1",
"K. c #9BA1AA",
"L. c #A3A3A3",
"P. c #AFAEAC",
"I. c #AAAAA7",
"U. c #B5A9A5",
"Y. c #AAB2AB",
"T. c #B3B5B4",
"R. c #B6BABA",
"E. c #BDBCBE",
"W. c #ADAEB3",
"Q. c #C09385",
"!. c #CBA789",
"~. c #DEB985",
"^. c #C1A599",
"/. c #D9B690",
"(. c #E3BC83",
"). c #CABBAA",
"_. c #C1BFBC",
"`. c #D0B7B7",
"'. c #EDA8A8",
"]. c #B9C3BF",
"[. c #F2C988",
"{. c #DCC8A9",
"}. c #D2C3B2",
"|. c #E9D2B1",
" X c #B7BAC7",
".X c #BBC1C2",
"XX c #CDCDCD",
"oX c #C7C5C3",
"OX c #DED7CF",
"+X c #C9CAD5",
"@X c #CED2D4",
"#X c #D3D4D4",
"$X c #D9D6D5",
"%X c #DCDCDC",
"&X c #D6D8DA",
"*X c #E2DEDD",
"=X c #F6EADB",
"-X c #F6E4CE",
";X c #E4DFE1",
":X c #DFE0E2",
">X c #E3E3E3",
",X c #ECECEC",
"<X c #E5E8E9",
"1X c #EFF1EB",
"2X c #F4F4F3",
"3X c #FEFEFE",
"4X c #F6F6F7",
"5X c #FAEFEA",
"6X c None",
/* pixels */
"6X6X6X6X6X6X6X6X6X6X6X6X6X6X6X6X6X6Xz.,.6X6X6X6X6X6X6X6X6X6X6X6X",
"6X*.6X6X6X6X6X6X6X6X6X6X6Xd.h.:.&.j.s.i., ,.0.t.s.g.g.6X6X6X6X6X",
"6XV.;.= 6X6X6X6X6Xz.z.s.r.8.3.f.!.[.;.Q   W [ / 2.8.0.l.k.g.6X6X",
"6Xj.;.] 3.X # z.k.r.2.! { 1.F.L I K %.; ( O.o.+.| | ' ~ Q >.i.6X",
"6X6Xy.W + >.l.8.! ] o.@.O. .m.G.~.!.! ;.[ ^ Q ; @ $ 6X6X6X6X6X6X",
"6X6X*.* >.y.! ' +.3.o.@.7.5.O.} ` ' o.| o.../ $.;.<.6X6X6X6X6X6X",
"6X6X6Xx.b.[ | +.o.o.4.1.1.f.j.0.y.e.} O.o.o.o.| [ 2.r.s.6X6X6X6X",
"6X6X6X-.d.v.o.o.+.5.o.J.>X2X2X%Xa.6.4.o.+.o.o.O.3.| ~ #.B.h.6X6X",
"6X6X6XR.+X] [ 4.@._ W.3X1X<X3X3X@XR q.o.o.o.o.o.| o.3.~ W C.h.6X",
"6X6X6X6X4Xa.~ X.) j.2X3XY.M 4X3X X) q.o.o.[ [ o.O.o.|  .~ $.V.6X",
"6X6X6X6X%X].<.B.N.<X3X3X&X> ,X@X) }  .| | / * + W o.c.3.2.% B.z.",
"6X6X6X6XS.I.M /.|.-X=X5X=X{.).~.!.[ ( | | ^ 8.< 6X6X~ [ 2.U l.g.",
"6X6X6X6XP.D.l J P L L A H {.}.(.Z $ X.+.| [ ;.k.6X6X6X6X- & b.>.",
"6X6X6X@X>XoX@XG.C C ).$X:X:XOXE.K.6 U 5.| { W n.6X6X6X6X6X6Xy.*.",
"6X6XC XXZ N |.T. X4X3X4X,X:X%X>X$XS.X q.o.{ Y B.6X6X6X6X6X6X6X6X",
"6X6XZ [.K ~.P [.|.OX%X2X@X;X;XE.4X X6X-.[ ^ ( n.6X6X6X6X6X6X6X6X",
"6X6X6XP.).R.H.H J S f OX2XP.>XL.Z.6X6X6X* Y y.i.6X6X6X6X6X6X6X6X",
"6X6X6X6X6X6X5 G.m.;.3 a.D.4 u.6X6X6X6X6X6X=.t.6X6X6X6X6X6X6X6X6X",
"6X6X6X6X6X6X6X9.Y $.3.U & , 6X6X6X6X6X6X6X6X6X6X6X6X6X6X6X6X6X6X",
"6X6X6X6X6X6X6X>.7.6X:. .6X6X6X6X6X6X6X6X6X6X6X6X6X6X6X6X6X6X6X6X",
"6X6X6X6X6X6X6Xa.T # 3 w.W 6X6X6X6X6X6X6X6X6X6X6X6X6X6X6X6X6X6X6X",
"6X6X6X6X6X6X>X X3 5 U.p.T : XXXX6X6X6X6X6X6X6X6X6X6X6X6X6X6X6X6X",
"6X6X6X6X6X6XE.<X#XR.*XP.J.R.,X3XE.6X6X6X6X6X6X6X6X6X6X6X6X6X6X6X",
"6X6X6X6X@X<X$XL.G.x XX2X3X3X2X2XoX6X6X6X6X6X6X6X6X6X6X6X6X6X6X6X",
"6X6Xw d m '.<X#XZ.o m.R.XX>X%XP.2   6X6X6X6X6X6X6X6X6X6X6X6X6X6X",
"6Xw w 0 0 0 k XXoX2 o 7 c @X$X%X>X>XP.6X6X6X6X6X6X6X6X6X6X6X6X6X",
"O b v D D F Z T.Z.. g h U.<X3X3X4X5X;XH.6X6X6X6X6X6X6X6X6X6X6X6X",
"6X6X6X6X6X6X6X6X6X6X6XV XXE.`.n e t u n B 6X6X6X6X6X6X6X6X6X6X6X",
"6X6X6X6X6X6X6X6X6X6X6X6XR.oX9 e i i y y 8 6X6X6X6X6X6X6X6X6X6X6X",
"6X6X6X6X6X6X6X6X6X6X6X6X6Xz v p 0 e t t r 6X6X6X6X6X6X6X6X6X6X6X",
"6X6X6X6X6X6X6X6X6X6X6X6X6X6Xz Q.D j a s b 6X6X6X6X6X6X6X6X6X6X6X",
"6X6X6X6X6X6X6X6X6X6X6X6X6X6X6X6X6X^.^.F.6 6X6X6X6X6X6X6X6X6X6X6X"
};
