/* XPM */
static char *result[] = {
/* columns rows colors chars-per-pixel */
"32 32 176 2 ",
"   c #170000",
".  c #3C1306",
"X  c #382E2E",
"o  c #2F3132",
"O  c #3F3636",
"+  c #560000",
"@  c #591212",
"#  c #640000",
"$  c #7C0200",
"%  c #651313",
"&  c #6B1B1B",
"*  c #661719",
"=  c #741D1D",
"-  c #7B1E1E",
";  c #7A1916",
":  c #5B261F",
">  c #672117",
",  c #6C0023",
"<  c #7F1F20",
"1  c #443B3B",
"2  c #4C3F3F",
"3  c #583D3E",
"4  c #692423",
"5  c #7E2020",
"6  c #6B3434",
"7  c #623636",
"8  c #783F3E",
"9  c #4E403F",
"0  c #78472B",
"q  c #2E4A4A",
"w  c #3E4040",
"e  c #3B4B4B",
"r  c #434444",
"t  c #4C4444",
"y  c #4B4C4B",
"u  c #464F4F",
"i  c #544444",
"p  c #514D4D",
"a  c #5B4A49",
"s  c #4C5151",
"d  c #555454",
"f  c #5C5A5A",
"g  c #5C5856",
"h  c #544A54",
"j  c #655E5C",
"k  c #656261",
"l  c #6C6B6B",
"z  c #6C6563",
"x  c #746E6E",
"c  c #696571",
"v  c #797676",
"b  c #930017",
"n  c #86191D",
"m  c #AB0000",
"M  c #BD0102",
"N  c #BE1B00",
"B  c #BE0018",
"V  c #AB1D1D",
"C  c #B62000",
"Z  c #991A22",
"A  c #832121",
"S  c #8C2424",
"D  c #8D2B2B",
"F  c #952B28",
"G  c #9C3429",
"H  c #8F3739",
"J  c #A4292A",
"K  c #B62627",
"L  c #A3312F",
"P  c #B53225",
"I  c #A23433",
"U  c #A83230",
"Y  c #B63333",
"T  c #BD3334",
"R  c #B92C36",
"E  c #CB0000",
"W  c #C70000",
"Q  c #C13400",
"!  c #C92315",
"~  c #C90024",
"^  c #C62425",
"/  c #C52C2E",
"(  c #C6312F",
")  c #C82A34",
"_  c #C53234",
"`  c #CA3435",
"'  c #C8393A",
"]  c #D33839",
"[  c #814100",
"{  c #A3631D",
"}  c #945831",
"|  c #885A33",
" . c #BA4535",
".. c #B85D38",
"X. c #AF7025",
"o. c #BE7C27",
"O. c #A76B36",
"+. c #B3743D",
"@. c #C8402C",
"#. c #CF4D3A",
"$. c #C15D3A",
"%. c #D55F3F",
"&. c #E2523D",
"*. c #CA3F41",
"=. c #895958",
"-. c #9D585B",
";. c #B75241",
":. c #8D6140",
">. c #9C7456",
",. c #AE6244",
"<. c #B27C52",
"1. c #917168",
"2. c #817E7D",
"3. c #887976",
"4. c #B47365",
"5. c #B77671",
"6. c #C76247",
"7. c #CD7140",
"8. c #D07054",
"9. c #C4726F",
"0. c #CC7675",
"q. c #AF8A39",
"w. c #B49E3B",
"e. c #C68E34",
"r. c #D9B723",
"t. c #B68044",
"y. c #BB8252",
"u. c #B48B6E",
"i. c #B6866B",
"p. c #B6A16C",
"a. c #D1B754",
"s. c #CEB363",
"d. c #D2BA77",
"f. c #D7C254",
"g. c #E1CE45",
"h. c #8F7E82",
"j. c #8B8483",
"k. c #8C8887",
"l. c #938D8C",
"z. c #959292",
"x. c #9B9998",
"c. c #9B9796",
"v. c #AE8C86",
"b. c #BE9B8E",
"n. c #A19D9C",
"m. c #A89895",
"M. c #B49C9E",
"N. c #BCA494",
"B. c #AF9EA4",
"V. c #ADA9A8",
"C. c #B1ADAC",
"Z. c #B5B1B1",
"A. c #BBB7B7",
"S. c #CF8F8C",
"D. c #C59B9B",
"F. c #C89591",
"G. c #D2A599",
"H. c #C8A79D",
"J. c #D9B6AB",
"K. c #CFB2B2",
"L. c #D0B8B2",
"P. c #DEC6BC",
"I. c #C5C3C3",
"U. c #CCC7C4",
"Y. c #CCCBCA",
"T. c #D4CDC8",
"R. c #D5D3D3",
"E. c #D9DAD9",
"W. c #D3DADE",
"Q. c #E1DBD9",
"!. c #E3E0DF",
"~. c #DDE1E2",
"^. c #E3E4E5",
"/. c #ECEBEB",
"(. c white",
"). c None",
/* pixels */
").).).).).).).).).).).).).).).).).).).).).).).).).).).R.I.3.@ ).",
").).).).).).).).).).).).).).).).).).).).).).).).Y.^.(.T.l.).).).",
").).).).).).).).).).).).).).).).d ).).).).).).E.(./.E.Z.I.T.).).",
").).).).).).).).).).).).h c p.d.u.j 5 +.y.{ 0 Y.R.).).).).).).).",
").).).).).).).).: > } O.:.1.b.H.n.u.u.<.X.<.N.^.Y.).).).).).).).",
").).).).).).).. + , 0 | >.m.B.D.v.I.~.L.Q $.H.I.).).).).).).).).",
").).).).).).).).h.s.a.<.i.R.J.G.E.^.^.L.W ] N ).).).).).).).).).",
").).).).).).).W.Q.f.r.` ~ @.M F.T.E.L.^ ( #.I ).).).).).).).).).",
").).).).).).i.P.J.;.e.q.G R *.! ! 9.^ K ' K ).).).).).).).).).).",
").).).).).T %.E E ~ e.g.w.# b Y _ M J Y ]  .).).).).).).).).).).",
").).).).).J Z H $ =.-.O.4.5...Z F J Y ` #...).).).).).).).).).).",
").).).).).).4 ; m F.0.E ) S.8./ T _ ` ) #.).).).).).).).).).).).",
").).).).).& S V I =.H F U M P T ` ` _ ` $.).).).).).).).).).).).",
").).).).).& n 7 q w e e r i 3 6 D K ` %.+.).).).).).).).).).).).",
").).).).).).% 4 a s y p y s s u e 1 L 7.).).).).).).).).).).).).",
").).).).).).).).% 6 i y s y y p p 3 * n ).).).).).).).).).).).).",
").).).).).).).).).; % ).1 y d 2 ).).).).).).).).).).).).).).).).",
").).).).).).).).).= = ).).1 j ).).).).).).).).).).).).).).).).).",
").).).).).).).).).& = ).).).r z ).).).).).).).).).).).).).).).).",
").).).).).).).).).& A ).).).1 k 3.).).).).).).).).).).).).).).).",
").).).).).).).).).).A = ).).).r z ).).).).).).).).).).).).).).).",
").).).).).).).).).).< = ).).).O x.c.).).).).).).).).).).).).).).",
").).).).).).).).).).= A ).).).  C.Y.).).).).).).).).).).).).).).",
").).).).).).).).).& - - & ).).).x Y.Z.).).).).).).).).).).).).).",
").).).).).).).).).= = 5 & ).).).t Z.Y.C.).).).).).).).).).).).).",
").).).).).).).).& 5 = - 5 ).).).p z.I.Y.V.).).).).).).).).).).).",
").).).).).).).& 5 5 5 - A ).).).X k A.U.R.n.).).).).).).).).).).",
").).).).).& = 5 = < - = A & ).).).t z.z.2.n.c.).).).).).).).).).",
").).= = = A A 5 A A A 5 S & ).).).y 1 O f k v j.v l.k.).).).).).",
"& S S S S A 5 - - = & - & ).).).t g r u r r w o d x.C.z.).).).).",
").).).).).).).).).).).).).).).).).j.v l k d d d d l j.Z.2.).).).",
").).).).).).).).).).).).).).).).).).).z.z.l.l.l.l.j.l.l.).).).)."
};
