/* XPM */
static char *result[] = {
/* columns rows colors chars-per-pixel */
"32 32 174 2 ",
"   c #55712E",
".  c #57722F",
"X  c #57732F",
"o  c #57742F",
"O  c #58702E",
"+  c #58732F",
"@  c #58742F",
"#  c #58752F",
"$  c #587330",
"%  c #597330",
"&  c #5A7230",
"*  c #587430",
"=  c #597430",
"-  c #587530",
";  c #597530",
":  c #5A7430",
">  c #5A7530",
",  c #5A7431",
"<  c #5A7531",
"1  c #597630",
"2  c #5A7630",
"3  c #5A7631",
"4  c #5B7732",
"5  c #5C7531",
"6  c #5D7531",
"7  c #5C7631",
"8  c #5D7631",
"9  c #5C7731",
"0  c #5D7731",
"q  c #5E7631",
"w  c #5E7532",
"e  c #5D7632",
"r  c #5D7732",
"t  c #5E7632",
"y  c #5F7632",
"u  c #5E7732",
"i  c #5F7732",
"p  c #5F7733",
"a  c #5B7831",
"s  c #5B7832",
"d  c #5C7831",
"f  c #5D7831",
"g  c #5C7832",
"h  c #5D7832",
"j  c #5C7932",
"k  c #5D7932",
"l  c #5D7833",
"z  c #5D7933",
"x  c #5E7832",
"c  c #5F7832",
"v  c #5F7932",
"b  c #5E7833",
"n  c #5F7833",
"m  c #5E7933",
"M  c #5F7933",
"N  c #5E7A33",
"B  c #5F7A33",
"V  c #5E7B33",
"C  c #5F7934",
"Z  c #5E7A34",
"A  c #5F7A34",
"S  c #5F7B34",
"D  c #5F7C34",
"F  c #617633",
"G  c #607733",
"H  c #617733",
"J  c #627734",
"K  c #637734",
"L  c #607833",
"P  c #617833",
"I  c #607933",
"U  c #617933",
"Y  c #607A33",
"T  c #617A33",
"R  c #617834",
"E  c #607934",
"W  c #617934",
"Q  c #627834",
"!  c #637834",
"~  c #627934",
"^  c #637934",
"/  c #607A34",
"(  c #617A34",
")  c #607B34",
"_  c #617B34",
"`  c #617A35",
"'  c #617B35",
"]  c #627A34",
"[  c #637A34",
"{  c #627B34",
"}  c #637B34",
"|  c #637A35",
" . c #627B35",
".. c #637B35",
"X. c #647935",
"o. c #647A35",
"O. c #657A35",
"+. c #647B35",
"@. c #657B36",
"#. c #677B36",
"$. c #607C34",
"%. c #617C34",
"&. c #617D34",
"*. c #607C35",
"=. c #617C35",
"-. c #617D35",
";. c #627C34",
":. c #627C35",
">. c #637C35",
",. c #627D35",
"<. c #637D35",
"1. c #627C36",
"2. c #637C36",
"3. c #627D36",
"4. c #637D36",
"5. c #627E36",
"6. c #637E36",
"7. c #647C35",
"8. c #657C35",
"9. c #647D35",
"0. c #657D35",
"q. c #647C36",
"w. c #657C36",
"e. c #647D36",
"r. c #657D36",
"t. c #657D37",
"y. c #667C36",
"u. c #677C36",
"i. c #667D36",
"p. c #647E36",
"a. c #657E36",
"s. c #647F36",
"d. c #647E37",
"f. c #657E37",
"g. c #647F37",
"h. c #657F37",
"j. c #667E36",
"k. c #667E37",
"l. c #667F37",
"z. c #677C38",
"x. c #667D38",
"c. c #677D38",
"v. c #667E38",
"b. c #677E38",
"n. c #667F38",
"m. c #677F38",
"M. c #687E38",
"N. c #697E38",
"B. c #697E39",
"V. c #658037",
"C. c #668037",
"Z. c #668038",
"A. c #678038",
"S. c #678138",
"D. c #678238",
"F. c #688038",
"G. c #688138",
"H. c #688039",
"J. c #698039",
"K. c #688139",
"L. c #698139",
"P. c #688238",
"I. c #688239",
"U. c #698239",
"Y. c #6A8239",
"T. c #6A813A",
"R. c #6A823A",
"E. c #6B823A",
"W. c #6A833A",
"Q. c #6B833A",
"!. c #6C823A",
"~. c #6C833B",
"^. c #6A843A",
"/. c #6C853B",
/* pixels */
"e.h.4.V.Y 9.7 } 6.=.{ 1 6.W.k.] 7.Y F._ N <.( 4.=.M >.$.>.i./ ) ",
"..( Y ( / S.6.d.A.6.f.( =.e.C u r.~ C.:.r.Y I S p.7.) n f.Y p.u ",
"r.q.H./.4.q.e.i.b.{ $.A 7.I f.N 7.2 ..i.w.a.+.{ z W r.w.=._ ;.2.",
"- y ] L.:.=.v.5 L j.>.] E.i.>.r G W n P W w.F.h.) L ..U e.:.=.G.",
"W { I 4.r.t { :.U p.T L W.p.x S > x.w.>.} w.G.x f +.y.{ G t f.U ",
"L ..v.4.( ~ u h.m $.>.7.r.L ( H.r.c.( M w.n { o.N 6.,.I K ) <.+.",
"P ..W T ( 5.6 ] 4.*.,.6.w.o.7.A ' M u p.A ) N ' 7 / L.x y.,.7.u ",
"u.A / L.Z.k.f.e.:.7.V.j.W C.h.x M I ( i.z K.v.K.{ r _ 7.b.m f.n ",
"} G G >.U.u 7.b.I } ] P c ) S.T.:...l.e.:.q.a.j.:.n Y w.z.:.m > ",
"5 8 Q Q o.) T ] y.A k M.7.l.2.c _ y i.Y ) U [ S Y B n.F.t.:.I , ",
"f.h.w.Q [ M l.+.:.t G p.W j.b.4.j.i ( x ( G...e x U X v.) ,.F.L ",
"x.>.S I R [ ~.] M +.] r f.7.] R.7.r.>.| R.,.x u h [ 7.G.N F.r.9 ",
"l.( / c ^ n U.w.4.h.W t W S v >.,.S 5 W h.w.n 4.A.p.F.L.:.c.Q ..",
"r.B Y a.p.,.7.:.7.m  .Y.v.j.U / ; { < { e * W x r.:.U A.Q @ n ..",
"9 h w.j.S./ ..1.I { 4.l.U b.{ =.f.n +.b.I c 2.x N C.% u U 3 x c ",
"p =.=.@.] { A.n.) ^.>.+ U !.p.m A :.e.,.c 7.L h d.N r j.=.l.>.6 ",
"w.#.H I % <.Z.>.8.6.L 7.,...m ( v 7 L.h.9 d 7.4.~ { f.U.f.r.v N.",
">.q F 6.6.>.q.a d.C 0 l.3.w.>.:.f.0 _ h.G.:.>.:.r M Z ,.i.+ W J.",
"m h m.%.C.A.7.p.C.>.&.6.r._ =.-.A.,.u a.6.G.l.-.i.j.' =.( & W  .",
"i u K.h.f.c.u ] 4.:.' ) v.l.h._ _ A.( :.9.:...I ' 9.r.7.W ^ E 6 ",
"+.....F.] U ] >.j.4 4.I M C.7.G ] p.[ h ..7.c U ,.= ..p.C.I I n ",
"i.l.r.7.@.,.G P G.h./ +.( _ O.~ n ) W u >.Y.' a.c.@ :.T _ ' ~ J ",
"{ a.S o 7.b.p.t $ l. .[ 6 4.m ,.-.b.h.>.~.j.F.-.] r.B e p.d.4.w ",
"U L.-.I ] f.b.( X.7.h.c T D.h...b.,.: e.Q.F.>.( q.r.M | i.r.x =.",
"v f.h.p.L p.{ w.f.l L.b.g p.a.^ y.Z.{ _ N ( 2.7.m ,.N M U { } A ",
"{ j.h._ ' p.( { g.S c I # ( u F.4.r { S 4.P.I g.Y c.3 b >.r.l.( ",
"h.6.7.u 4.b.:.7.L . 8 / n I j g.f.( L D A e n 7.7.k O z.Q.c.8 2.",
"w._   ` ,.{ :.A.b.c { l.L.r.d. .F.' >.{ 7.i ..{ 6.) t u.0.n 7 ] ",
"r 4.@.w.R.Y.>.,.h.Z.C.) 9.s.N <.b.L.B.G =.F.~ Y M s V :.f.~ j.{ ",
"A S 2 r _ A.r.S G G.6.p.[ L ) ' 9.S.+.] _ c.u t F. .m =.A.+.k.7.",
"I.( :.w.f.) ] S.V <.0 < I r.2.M.n p.C ) F.c +.( q.^ ;.f.} e.m <.",
">. .k S.{ :.( b.=.A ] < N H.i.) :.w.@.p.=.r U.d.8 ! b.,.x r.g t."
};
