/* XPM */
static char *result[] = {
/* columns rows colors chars-per-pixel */
"32 32 139 2 ",
"   c #F2E700",
".  c #F4E900",
"X  c #F5EA00",
"o  c #F5EA01",
"O  c #F6EA00",
"+  c #F6EB00",
"@  c #F4E903",
"#  c #F8EC00",
"$  c #F9EE00",
"%  c #FAEF00",
"&  c #FBEF00",
"*  c #F4E809",
"=  c #F5E909",
"-  c #FCF000",
";  c #FCF100",
":  c #FDF100",
">  c #FEF200",
",  c #FFF300",
"<  c #FFF400",
"1  c #FFF500",
"2  c #FFF600",
"3  c #FFF700",
"4  c #FFF800",
"5  c #FFF900",
"6  c #FFFA00",
"7  c #FFFB00",
"8  c #FFFC00",
"9  c #FFFD00",
"0  c #FFFE00",
"q  c #F1E611",
"w  c #F1E714",
"e  c #F1E616",
"r  c #F1E618",
"t  c #F1E719",
"y  c #F1E61A",
"u  c #F1E61E",
"i  c #F5EA1B",
"p  c #F7EC19",
"a  c #F0E621",
"s  c #F1E621",
"d  c #F2E622",
"f  c #F2E623",
"g  c #F1E524",
"h  c #F0E624",
"j  c #F1E724",
"k  c #F0E526",
"l  c #F1E526",
"z  c #F1E627",
"x  c #F0E628",
"c  c #F0E629",
"v  c #F0E52B",
"b  c #F0E62D",
"n  c #F0E52E",
"m  c #F0E62F",
"M  c #EFE53F",
"N  c #F0E531",
"B  c #F0E630",
"V  c #F0E631",
"C  c #F1E731",
"Z  c #F0E532",
"A  c #F0E632",
"S  c #F0E538",
"D  c #F0E539",
"F  c #F1E638",
"G  c #F0E739",
"H  c #F0E53C",
"J  c #F0E63C",
"K  c #F1E63C",
"L  c #EFE449",
"P  c #EFE54D",
"I  c #EFE64D",
"U  c #F0E641",
"Y  c #F0E542",
"T  c #F0E642",
"R  c #F0E643",
"E  c #F0E547",
"W  c #F0E54B",
"Q  c #F0E64E",
"!  c #EFE551",
"~  c #EFE553",
"^  c #EFE652",
"/  c #EFE558",
"(  c #EFE559",
")  c #EFE65A",
"_  c #EFE65D",
"`  c #EFE55E",
"'  c #F0E650",
"]  c #F0E652",
"[  c #F0E557",
"{  c #F0E65B",
"}  c #F0E65D",
"|  c #F0E55E",
" . c #EFE660",
".. c #EFE562",
"X. c #EEE565",
"o. c #EFE565",
"O. c #EFE667",
"+. c #EFE668",
"@. c #EDE66D",
"#. c #EFE66C",
"$. c #EFE670",
"%. c #EFE671",
"&. c #EEE472",
"*. c #EFE579",
"=. c #EEE67D",
"-. c #EEE67E",
";. c #EDE684",
":. c #EDE687",
">. c #EBE58D",
",. c #ECE58C",
"<. c #EEE68D",
"1. c #ECE491",
"2. c #EBE597",
"3. c #EAE499",
"4. c #EBE499",
"5. c #EBE599",
"6. c #EAE49A",
"7. c #ECE598",
"8. c #EBE49C",
"9. c #EBE59F",
"0. c #EBE4A0",
"q. c #EAE5A2",
"w. c #E9E4AC",
"e. c #EAE4AD",
"r. c #E9E3B0",
"t. c #EAE5B2",
"y. c #E8E3B4",
"u. c #EAE5B5",
"i. c #E9E4B7",
"p. c #E7E3BB",
"a. c #E7E3C2",
"s. c #E7E5C0",
"d. c #E7E5C2",
"f. c #E7E5C4",
"g. c #E6E4C5",
"h. c #E6E4CA",
"j. c #E7E4CA",
"k. c #E5E3CD",
"l. c None",
/* pixels */
"l.l.l.l.l.l.l.l.l.l.l.l.l.l.l.l.l.l.l.l.l.l.l.l.l.l.l.l.l.l.l.l.",
"l.l.l.l.l.l.l.l.l.l.l.l.l.l.l.l.l.l.l.l.l.l.l.l.l.l.l.l.l.l.l.l.",
"l.l.l.l.l.l.l.l.l.l.l.l.T A z j v J ~ l.l.l.l.l.l.l.l.l.l.l.l.l.",
"l.l.l.l.l.l.l.l.l.L g 5 0 3 % # : 5 9 : F l.l.l.l.l.l.l.l.l.l.l.",
"l.l.l.l.l.l.l.l.x 6 : K *.q.i.p.t.5.#.h 2 , I l.l.l.l.l.l.l.l.l.",
"l.l.l.l.l.l.l.i 1 N 6.l.l.l.l.l.l.l.l.l.-.  3 S l.l.l.l.l.l.l.l.",
"l.l.l.l.l.l.p - ) l.l.l.l.l.l.l.l.l.l.l.l.y.A < J l.l.l.l.l.l.l.",
"l.l.l.l.l.k < ` l.l.l.l.l.l.l.l.l.l.l.l.l.l.f.C 2 _ l.l.l.l.l.l.",
"l.l.l.l.E 6 M l.l.l.l.l.l.l.l.l.l.l.l.l.l.l.l.e.  % 4.l.l.l.l.l.",
"l.l.l.l.y + w.l.l.l.l.l.l.l.l.l.l.l.l.l.l.l.l.l.&.3 ' l.l.l.l.l.",
"l.l.l./ 8 [ l.l.l.l.l.l.l.l.l.l.l.l.l.l.l.l.l.l.l.t + l.l.l.l.l.",
"l.l.l.H 3 2.l.l.l.l.l.l.l.l.l.l.l.l.l.l.l.l.l.l.l.( 5 ;.l.l.l.l.",
"l.l.l.a X s.l.l.l.l.l.l.l.l.l.l.l.l.l.l.l.l.l.l.l.=.6 o.l.l.l.l.",
"l.l.l.o b l.l.l.l.l.l.l.l.l.l.l.l.l.l.l.l.l.l.l.l.1.3 ^ l.l.l.l.",
"l.l.l.$ G l.l.l.l.l.l.l.l.l.l.l.l.l.l.l.l.l.l.l.l.l.< W l.l.l.l.",
"l.l.l.O B l.l.l.l.l.l.l.l.l.l.l.l.l.l.l.l.l.l.l.l.l.3 ! l.l.l.l.",
"l.l.l.s @ d.l.l.l.l.l.l.l.l.l.l.l.l.l.l.l.l.l.l.l.%.7 X.l.l.l.l.",
"l.l.l.Y 2 3.l.l.l.l.l.l.l.l.l.l.l.l.l.l.l.l.l.l.l.Q 6 :.l.l.l.l.",
"l.l.l.#.6  .l.l.l.l.l.l.l.l.l.l.l.l.l.l.l.l.l.l.l.d # u.l.l.l.l.",
"l.l.l.l.= . r.l.l.l.l.l.l.l.l.l.l.l.l.l.l.l.l.l.{ 5 P l.l.l.l.l.",
"l.l.l.l.| 3 Q l.l.l.l.l.l.l.l.l.l.l.l.l.l.l.l.l.u & 9.l.l.l.l.l.",
"l.l.l.l.l.f : O.l.l.l.l.l.l.l.l.l.l.l.l.l.l.l.V 1 } l.l.l.l.l.l.",
"l.l.l.l.l.7.$ % ..l.l.l.l.l.l.l.l.l.l.l.l.l.V 1 m l.l.l.l.l.l.l.",
"l.l.l.l.l.l.>.# , R l.l.l.l.l.l.l.l.l.l.l.g 2 c a.l.l.l.l.l.l.l.",
"l.l.l.l.l.l.l.0.x 2 $ E @.l.l.l.l.l.] n 4 > Q h.l.l.l.l.l.l.l.l.",
"l.l.l.l.l.l.l.l.l.$.w 4 7 ; q e * 2 9 < Z <.l.l.l.l.l.l.l.l.l.l.",
"l.l.l.l.l.l.l.l.l.l.g.,.} D s r l U +.8.l.l.l.l.l.l.l.l.l.l.l.l.",
"l.l.l.l.l.l.l.l.l.l.l.l.l.l.k.j.l.l.l.l.l.l.l.l.l.l.l.l.l.l.l.l.",
"l.l.l.l.l.l.l.l.l.l.l.l.l.l.l.l.l.l.l.l.l.l.l.l.l.l.l.l.l.l.l.l.",
"l.l.l.l.l.l.l.l.l.l.l.l.l.l.l.l.l.l.l.l.l.l.l.l.l.l.l.l.l.l.l.l.",
"l.l.l.l.l.l.l.l.l.l.l.l.l.l.l.l.l.l.l.l.l.l.l.l.l.l.l.l.l.l.l.l.",
"l.l.l.l.l.l.l.l.l.l.l.l.l.l.l.l.l.l.l.l.l.l.l.l.l.l.l.l.l.l.l.l."
};
