/* XPM */
static char *result[] = {
/* columns rows colors chars-per-pixel */
"32 32 123 2 ",
"   c #EF9855",
".  c #E7965F",
"X  c #EC945D",
"o  c #EC995D",
"O  c #F29653",
"+  c #F39C5E",
"@  c #FA9E5B",
"#  c #D88863",
"$  c #D99065",
"%  c #DF9C64",
"&  c #D5956F",
"*  c #DB956C",
"=  c #D49E6A",
"-  c #DD9A6D",
";  c #CC9B76",
":  c #CD9F7B",
">  c #D69670",
",  c #DC9571",
"<  c #D39C75",
"1  c #DC9B73",
"2  c #D79678",
"3  c #D49D7B",
"4  c #DC9D7D",
"5  c #E19663",
"6  c #EB9565",
"7  c #E69A65",
"8  c #EC9B64",
"9  c #E7946A",
"0  c #EF9769",
"q  c #E49C6C",
"w  c #EC9D6B",
"e  c #F39464",
"r  c #FA9162",
"t  c #F39C65",
"y  c #F89C65",
"u  c #F3966B",
"i  c #F39C6C",
"p  c #FA9C6C",
"a  c #E29773",
"s  c #E49C73",
"d  c #EC9C73",
"f  c #E19C7B",
"g  c #EB9D7A",
"h  c #F29D73",
"j  c #F99E72",
"k  c #F29C7A",
"l  c #FD9C79",
"z  c #DDA067",
"x  c #D3A36C",
"c  c #DCA26E",
"v  c #CBA574",
"b  c #CEA974",
"n  c #C5A37D",
"m  c #C9A67C",
"M  c #D6A375",
"N  c #DCA274",
"B  c #D2A976",
"V  c #DBAB75",
"C  c #D4A37C",
"Z  c #DBA37C",
"A  c #D5AD7C",
"S  c #DEAC7B",
"D  c #D9B17D",
"F  c #ECA066",
"G  c #E5A16D",
"H  c #ECA16E",
"J  c #F4A26D",
"K  c #F8A16C",
"L  c #E3A274",
"P  c #ECA374",
"I  c #E6A875",
"U  c #EBA975",
"Y  c #E4A47A",
"T  c #EBA47C",
"R  c #E5AA7C",
"E  c #EBA87D",
"W  c #F4A374",
"Q  c #FAA375",
"!  c #F1A873",
"~  c #FDAA76",
"^  c #F2A37B",
"/  c #F4AB7B",
"(  c #FAA879",
")  c #CB9782",
"_  c #CC9E82",
"`  c #D39D82",
"'  c #DC9F81",
"]  c #D19D90",
"[  c #E79B81",
"{  c #CEA384",
"}  c #CDA983",
"|  c #C4A589",
" . c #CCA48B",
".. c #D4A483",
"X. c #DCA483",
"o. c #D5AA84",
"O. c #DBA983",
"+. c #D4A38A",
"@. c #DBA58B",
"#. c #D4AB8B",
"$. c #DBAC8A",
"%. c #D4A592",
"&. c #DEA694",
"*. c #D4AA91",
"=. c #DEAC95",
"-. c #DBB394",
";. c #E3A483",
":. c #EAA483",
">. c #E2AC83",
",. c #EDAB85",
"<. c #E2A68A",
"1. c #E2AC8B",
"2. c #EAAA8B",
"3. c #F4A481",
"4. c #F5AB83",
"5. c #FAAC86",
"6. c #F2A088",
"7. c #F2AA8D",
"8. c #E5B48B",
"9. c #EBB38A",
"0. c #E1AB91",
"q. c #E9AF97",
"w. c #E2B395",
/* pixels */
"^ P T 1 , Y d d d 3.5.^ w k W 9 ) 0.2.g ^ ( W i q T Y > > E 4.P ",
"H P I s s I G H H I E P w P J 7 < ;.E P ! Q J H w T Y * * T T P ",
"O.O.$.} } $.O.O.#.o.o.o.A O.A C  .*.#.O.1.O...#.X.X.@.....@.X.X.",
"$.$.-.*.*.=.$.$.-.} o.$.#.o.$.o.+.$.$.$.$.{ _  .X.X...+.+.` X.Z ",
"Q ^ 4.T T 4.^ Q / L G P P ! ! ! ! Q W W Q q * f K t t i w 8 + + ",
"^ ^ 4.:.:.5.^ ^ 4.s s I P P ! P T T d Q ^ 9 , f @ t 8 w w 8 e + ",
"X.@.=.+.%.0.@.<.$.....O.X.O.O.Z ] +.@.@.X.X.` +.Z Z ..` ..` 4 Z ",
"X.3 @.{ ..$.X.X.o.C C C M Z Z < : ....M X.Z Z O.4 X.X.` ` X.X.4 ",
"k g a a a Y k k I G G P w G P 7 - L L q q G L L 7 H L - - L H w ",
"T T P Y T T T ^ Q W W Q h j j u M :.I q 7 H J G 8 H q q q d H F ",
"f 4 1 M M Z 1 Y R L Y Y L L Y 1  .@.X.1 % q q 7 s s 1 2 1 1 s d ",
"< < < m C C 3 3 #.} ..o.......: %.%.X.' 4 3 C X.f 4 ` X.X.` 4 ;.",
"s s s L Y Y s a ;.Y Y ,.:.:.,.[ 7.:.:.,.,.Z O.w.T Y ;.2.2.;.f Y ",
"p y t J J K p y G 7 G H H P ! w Q p p ~ ~ L Z 8.u 8 w T T w 6 e ",
"u w q G H H H w x = c L N L I G d h P ! I c M A q 5 7 1 - q % 5 ",
"Z C C C C o.Z Z X.Z X.O.;.>.>.;.@.0.0.>.Z o.} n Y X.....` ..Z Z ",
"@.@.+.+.} +.+.@...X.;.2.X.o.X.4 ] &.q.<.Z 2.9.A ;.;.@.` ` @.;.;.",
"g P L s s s d k H w i i w H i e 1 L T H 8 J ~ i W Q P s w d W i ",
"P W P G q s d P J w i i w i u e x x H H u J h h J H w 7 7 q w w ",
";.@.$.o.....X.X.1.O.>.<.X.X.<.Z } A O.O.X.X.<.&.M X...{ _ ..X.M ",
"X.X.X.O.C Z Z Y $.o.o.o.O.X.O.C O.O.O.>.X...{ %.X.>.O.@.@.O.O.Y ",
"t 8 F F F 8 8 J H % z G q w P G H J i 8 w 7 * s t J H w q H J 8 ",
"X o o 7 7 7 8 t 7 . % q 8 p W H w Q i 0 t w 9 s X 8 w 7 6 0 6 X ",
"& 1 M N M N N f a 2 3 4 [ 6.7.2...2.<.4 [ :.@.<.s f X.4 4 Z 4 * ",
"C o.} { { _ : : Z M m o.o.C M O.| -.-.o.O.O.$.$.C 1.1.Z C O.X.M ",
"c 1 N N Z M L L q 1 M Z Y I L c ; O.R L L R S Y L Y Y 1 1 Y f 1 ",
"O   o o o + @ @ r y h W j j y X # s h u p K h i 0 i i 9 6 w u 0 ",
"+ o 7 7 7 7 o . e w H q d j u 6 $ q i w W W w L w P w 7 7 w w q ",
"X...+.+.} { 3 3 q B B v B Z V x B A V V S V B D D D D B B B A A ",
"Y R Z X.X.X.Z Y Y 1 M < Z E R Y >.>.I Y R Z C $.>.>.>.R >.>.>.>.",
"J J ! P P J J K l d s a k k k h ^ W d W ^ d a :.4.3.3.3.3.3.4.3.",
"Y I Y Y >.R T T ! s = 1 g s G L I G q L U 1 < A E T E E E E E E "
};
